<svg width="46" height="70" viewBox="0 0 46 70" fill="none" xmlns="http://www.w3.org/2000/svg">
<path d="M40.1809 12.0016C42.5573 12.0016 42.7958 12.0016 45.1631 12.0016C45.1631 31.068 45.1631 50.0701 45.1631 69.109C29.0053 69.109 16.7837 69.109 0.570824 69.109C0.570824 50.0793 0.570824 31.0771 0.570824 12.0199C2.93807 12.0199 3.45189 12.0199 5.86501 12.0199C5.86501 11.7813 5.86501 11.5978 5.86501 11.4235C5.86501 9.3774 5.87418 7.32212 5.85583 5.27601C5.83748 3.84466 6.22285 2.59681 7.34224 1.62422C8.13132 0.945241 9.03968 0.596578 10.0673 0.596578C13.2512 0.587402 16.4259 0.587402 19.6097 0.587402C24.9589 0.587402 30.3174 0.596578 35.6666 0.587402C37.0704 0.587402 38.2357 1.04617 39.1532 2.11051C39.8873 2.96382 40.1625 3.96394 40.1625 5.08333C40.1533 7.23954 40.1625 9.39575 40.1625 11.552C40.1533 11.6712 40.1625 11.8089 40.1809 12.0016ZM11.6088 12.0016C11.829 12.0016 11.9942 12.0016 12.1593 12.0016C14.6917 12.0016 17.2333 12.0016 19.7657 12.0016C24.5002 12.0016 29.2438 12.0016 33.9783 12.0107C34.3545 12.0107 34.4371 11.8914 34.4371 11.5336C34.4187 9.92792 34.4371 8.32223 34.4371 6.71654C34.4371 6.58809 34.4187 6.45963 34.4004 6.322C26.7848 6.322 19.2152 6.322 11.6088 6.322C11.6088 8.21213 11.6088 10.0656 11.6088 12.0016Z" fill="white"/>
</svg>
